<svg width="217" height="46" viewBox="0 0 217 46" fill="none" xmlns="http://www.w3.org/2000/svg">
<g clip-path="url(#clip0_170_76)">
<path d="M52.848 24.912H63.984V28.336H52.848V24.912ZM53.168 34.512H65.808V38H49.008V15.6H65.36V19.088H53.168V34.512ZM68.4348 38V35.472L78.9628 22.736L79.6988 24.112H68.6268V20.912H82.8988V23.44L72.3708 36.176L71.5708 34.8H83.1868V38H68.4348ZM94.202 38.32C92.4527 38.32 90.778 38.0747 89.178 37.584C87.578 37.072 86.3087 36.4213 85.37 35.632L86.81 32.4C87.706 33.104 88.8153 33.6907 90.138 34.16C91.4607 34.6293 92.8153 34.864 94.202 34.864C95.3753 34.864 96.3247 34.736 97.05 34.48C97.7753 34.224 98.3087 33.8827 98.65 33.456C98.9913 33.008 99.162 32.5067 99.162 31.952C99.162 31.2693 98.9167 30.7253 98.426 30.32C97.9353 29.8933 97.2953 29.5627 96.506 29.328C95.738 29.072 94.874 28.8373 93.914 28.624C92.9753 28.4107 92.026 28.1653 91.066 27.888C90.1273 27.5893 89.2633 27.216 88.474 26.768C87.706 26.2987 87.0767 25.68 86.586 24.912C86.0953 24.144 85.85 23.1627 85.85 21.968C85.85 20.752 86.17 19.6427 86.81 18.64C87.4713 17.616 88.4633 16.8053 89.786 16.208C91.13 15.5893 92.826 15.28 94.874 15.28C96.218 15.28 97.5513 15.4507 98.874 15.792C100.197 16.1333 101.349 16.624 102.33 17.264L101.018 20.496C100.015 19.8987 98.9807 19.4613 97.914 19.184C96.8473 18.8853 95.8233 18.736 94.842 18.736C93.69 18.736 92.7513 18.8747 92.026 19.152C91.322 19.4293 90.7993 19.792 90.458 20.24C90.138 20.688 89.978 21.2 89.978 21.776C89.978 22.4587 90.2127 23.0133 90.682 23.44C91.1727 23.8453 91.802 24.1653 92.57 24.4C93.3593 24.6347 94.234 24.8693 95.194 25.104C96.154 25.3173 97.1033 25.5627 98.042 25.84C99.002 26.1173 99.866 26.48 100.634 26.928C101.423 27.376 102.053 27.984 102.522 28.752C103.013 29.52 103.258 30.4907 103.258 31.664C103.258 32.8587 102.927 33.968 102.266 34.992C101.626 35.9947 100.634 36.8053 99.29 37.424C97.946 38.0213 96.25 38.32 94.202 38.32ZM116.695 20.72C118.06 20.72 119.276 20.9867 120.343 21.52C121.431 22.0533 122.284 22.8747 122.903 23.984C123.522 25.072 123.831 26.48 123.831 28.208V38H119.831V28.72C119.831 27.2053 119.468 26.0747 118.743 25.328C118.039 24.5813 117.047 24.208 115.767 24.208C114.828 24.208 113.996 24.4 113.271 24.784C112.546 25.168 111.98 25.744 111.575 26.512C111.191 27.2587 110.999 28.208 110.999 29.36V38H106.999V14.256H110.999V25.52L110.135 24.112C110.732 23.024 111.596 22.192 112.727 21.616C113.879 21.0187 115.202 20.72 116.695 20.72ZM136.617 38.224C134.867 38.224 133.31 37.8507 131.945 37.104C130.579 36.336 129.502 35.2907 128.713 33.968C127.923 32.6453 127.529 31.1413 127.529 29.456C127.529 27.7493 127.923 26.2453 128.713 24.944C129.502 23.6213 130.579 22.5867 131.945 21.84C133.31 21.0933 134.867 20.72 136.617 20.72C138.387 20.72 139.955 21.0933 141.321 21.84C142.707 22.5867 143.785 23.6107 144.553 24.912C145.342 26.2133 145.737 27.728 145.737 29.456C145.737 31.1413 145.342 32.6453 144.553 33.968C143.785 35.2907 142.707 36.336 141.321 37.104C139.955 37.8507 138.387 38.224 136.617 38.224ZM136.617 34.8C137.598 34.8 138.473 34.5867 139.241 34.16C140.009 33.7333 140.606 33.1147 141.033 32.304C141.481 31.4933 141.705 30.544 141.705 29.456C141.705 28.3467 141.481 27.3973 141.033 26.608C140.606 25.7973 140.009 25.1787 139.241 24.752C138.473 24.3253 137.609 24.112 136.649 24.112C135.667 24.112 134.793 24.3253 134.025 24.752C133.278 25.1787 132.681 25.7973 132.233 26.608C131.785 27.3973 131.561 28.3467 131.561 29.456C131.561 30.544 131.785 31.4933 132.233 32.304C132.681 33.1147 133.278 33.7333 134.025 34.16C134.793 34.5867 135.657 34.8 136.617 34.8ZM159.034 38.224C157.647 38.224 156.378 37.904 155.226 37.264C154.095 36.624 153.188 35.664 152.506 34.384C151.844 33.0827 151.514 31.44 151.514 29.456C151.514 27.4507 151.834 25.808 152.474 24.528C153.135 23.248 154.031 22.2987 155.161 21.68C156.292 21.04 157.583 20.72 159.034 20.72C160.719 20.72 162.202 21.0827 163.482 21.808C164.783 22.5333 165.807 23.5467 166.554 24.848C167.322 26.1493 167.706 27.6853 167.706 29.456C167.706 31.2267 167.322 32.7733 166.554 34.096C165.807 35.3973 164.783 36.4107 163.482 37.136C162.202 37.8613 160.719 38.224 159.034 38.224ZM149.562 44.208V20.912H153.37V24.944L153.242 29.488L153.562 34.032V44.208H149.562ZM158.586 34.8C159.546 34.8 160.399 34.5867 161.146 34.16C161.914 33.7333 162.522 33.1147 162.97 32.304C163.418 31.4933 163.642 30.544 163.642 29.456C163.642 28.3467 163.418 27.3973 162.97 26.608C162.522 25.7973 161.914 25.1787 161.146 24.752C160.399 24.3253 159.546 24.112 158.586 24.112C157.626 24.112 156.762 24.3253 155.994 24.752C155.226 25.1787 154.618 25.7973 154.17 26.608C153.722 27.3973 153.498 28.3467 153.498 29.456C153.498 30.544 153.722 31.4933 154.17 32.304C154.618 33.1147 155.226 33.7333 155.994 34.16C156.762 34.5867 157.626 34.8 158.586 34.8ZM171.499 38V14.256H175.499V38H171.499ZM180.749 38V20.912H184.749V38H180.749ZM182.765 18.096C182.018 18.096 181.4 17.8613 180.909 17.392C180.44 16.9227 180.205 16.3573 180.205 15.696C180.205 15.0133 180.44 14.448 180.909 14C181.4 13.5307 182.018 13.296 182.765 13.296C183.512 13.296 184.12 13.52 184.589 13.968C185.08 14.3947 185.325 14.9387 185.325 15.6C185.325 16.304 185.09 16.9013 184.621 17.392C184.152 17.8613 183.533 18.096 182.765 18.096ZM195.279 38.224C193.85 38.224 192.474 38.0427 191.151 37.68C189.85 37.296 188.815 36.8373 188.047 36.304L189.583 33.264C190.351 33.7547 191.268 34.16 192.335 34.48C193.402 34.8 194.468 34.96 195.535 34.96C196.794 34.96 197.7 34.7893 198.255 34.448C198.831 34.1067 199.119 33.648 199.119 33.072C199.119 32.6027 198.927 32.2507 198.543 32.016C198.159 31.76 197.658 31.568 197.039 31.44C196.42 31.312 195.727 31.1947 194.959 31.088C194.212 30.9813 193.455 30.8427 192.687 30.672C191.94 30.48 191.258 30.2133 190.639 29.872C190.02 29.5093 189.519 29.0293 189.135 28.432C188.751 27.8347 188.559 27.0453 188.559 26.064C188.559 24.976 188.868 24.0373 189.487 23.248C190.106 22.4373 190.97 21.8187 192.079 21.392C193.21 20.944 194.543 20.72 196.079 20.72C197.231 20.72 198.394 20.848 199.567 21.104C200.74 21.36 201.711 21.7227 202.479 22.192L200.943 25.232C200.132 24.7413 199.311 24.4107 198.479 24.24C197.668 24.048 196.858 23.952 196.047 23.952C194.831 23.952 193.924 24.1333 193.327 24.496C192.751 24.8587 192.463 25.3173 192.463 25.872C192.463 26.384 192.655 26.768 193.039 27.024C193.423 27.28 193.924 27.4827 194.543 27.632C195.162 27.7813 195.844 27.9093 196.591 28.016C197.359 28.1013 198.116 28.24 198.863 28.432C199.61 28.624 200.292 28.8907 200.911 29.232C201.551 29.552 202.063 30.0107 202.447 30.608C202.831 31.2053 203.023 31.984 203.023 32.944C203.023 34.0107 202.703 34.9387 202.063 35.728C201.444 36.5173 200.559 37.136 199.407 37.584C198.255 38.0107 196.879 38.224 195.279 38.224ZM212.9 38.224C211.022 38.224 209.572 37.744 208.548 36.784C207.524 35.8027 207.012 34.3627 207.012 32.464V17.136H211.012V32.368C211.012 33.1787 211.214 33.808 211.62 34.256C212.046 34.704 212.633 34.928 213.38 34.928C214.276 34.928 215.022 34.6933 215.62 34.224L216.74 37.072C216.27 37.456 215.694 37.744 215.012 37.936C214.329 38.128 213.625 38.224 212.9 38.224ZM204.196 24.24V21.04H215.588V24.24H204.196Z" fill="#0A270E"/>
<path d="M35.0234 17.9609H31.6094C30.9609 17.9609 30.4375 17.4375 30.4375 16.7891C30.4375 16.1406 30.9609 15.6172 31.6094 15.6172H35.0234C35.6719 15.6172 36.1953 16.1406 36.1953 16.7891C36.1953 17.4375 35.668 17.9609 35.0234 17.9609ZM27.8711 17.9609H12.2773C11.6289 17.9609 11.1055 17.4375 11.1055 16.7891C11.1055 16.1406 11.6289 15.6172 12.2773 15.6172H27.8711C28.5195 15.6172 29.043 16.1406 29.043 16.7891C29.043 17.4375 28.5156 17.9609 27.8711 17.9609Z" fill="#B9EFBA"/>
<path d="M16.7734 37.1094C16.7734 37.3915 16.829 37.6709 16.937 37.9315C17.0449 38.1922 17.2032 38.429 17.4027 38.6285C17.6022 38.8281 17.839 38.9863 18.0997 39.0943C18.3604 39.2022 18.6397 39.2578 18.9219 39.2578C19.204 39.2578 19.4834 39.2022 19.744 39.0943C20.0047 38.9863 20.2415 38.8281 20.441 38.6285C20.6406 38.429 20.7988 38.1922 20.9068 37.9315C21.0147 37.6709 21.0703 37.3915 21.0703 37.1094C21.0703 36.8272 21.0147 36.5479 20.9068 36.2872C20.7988 36.0265 20.6406 35.7897 20.441 35.5902C20.2415 35.3907 20.0047 35.2324 19.744 35.1245C19.4834 35.0165 19.204 34.9609 18.9219 34.9609C18.6397 34.9609 18.3604 35.0165 18.0997 35.1245C17.839 35.2324 17.6022 35.3907 17.4027 35.5902C17.2032 35.7897 17.0449 36.0265 16.937 36.2872C16.829 36.5479 16.7734 36.8272 16.7734 37.1094Z" fill="#B9EFBA"/>
<path d="M33.2305 37.1094C33.2305 37.6792 33.4568 38.2256 33.8597 38.6285C34.2626 39.0315 34.8091 39.2578 35.3789 39.2578C35.9487 39.2578 36.4952 39.0315 36.8981 38.6285C37.301 38.2256 37.5273 37.6792 37.5273 37.1094C37.5273 36.5396 37.301 35.9931 36.8981 35.5902C36.4952 35.1873 35.9487 34.9609 35.3789 34.9609C34.8091 34.9609 34.2626 35.1873 33.8597 35.5902C33.4568 35.9931 33.2305 36.5396 33.2305 37.1094Z" fill="#B9EFBA"/>
<path d="M36.7578 31.207H16.7969C15.3242 31.207 14.125 30.0078 14.125 28.5352V28.4805L12.7227 13.5469V13.5391V13.5313L12.4883 11.3672C12.1524 7.97657 10.2383 6.77735 8.68751 6.36329L5.96485 5.69532C5.33595 5.53907 4.70313 5.92579 4.54688 6.5547C4.39063 7.1836 4.77735 7.81642 5.40626 7.97267L8.09767 8.63282C8.73048 8.80079 9.19532 9.1172 9.52735 9.59767C9.86329 10.082 10.0742 10.7578 10.1563 11.6055L10.3906 13.7774L11.7813 28.5938C11.8125 31.332 14.0508 33.5508 16.7969 33.5508H36.7578C37.4063 33.5508 37.9297 33.0274 37.9297 32.3789C37.9297 31.7305 37.4063 31.207 36.7578 31.207Z" fill="#212121"/>
<path d="M34.8242 10.7266H16.8828C16.2344 10.7266 15.7109 11.25 15.7109 11.8984C15.7109 12.5469 16.2344 13.0703 16.8828 13.0703H34.8242C36.0039 13.0703 36.9687 14.0195 36.9922 15.1914L36.2148 24.0391L36.2109 24.0898V24.1406C36.2109 25.3359 35.2383 26.3086 34.043 26.3086H19.0312C18.3828 26.3086 17.8594 26.832 17.8594 27.4805C17.8594 28.1289 18.3828 28.6523 19.0312 28.6523H34.043C36.5117 28.6523 38.5234 26.6562 38.5547 24.1953L39.332 15.3437L39.3359 15.293V15.2422C39.3359 12.75 37.3125 10.7266 34.8242 10.7266Z" fill="#212121"/>
<path d="M17.957 35.8945C18.2383 35.8945 18.4688 36.125 18.4688 36.4063C18.4688 36.6875 18.2383 36.918 17.957 36.918C17.6758 36.918 17.4453 36.6875 17.4453 36.4063C17.4453 36.125 17.6758 35.8945 17.957 35.8945ZM17.957 33.5508C16.3789 33.5508 15.1016 34.8281 15.1016 36.4063C15.1016 37.9844 16.3789 39.2617 17.957 39.2617C19.5352 39.2617 20.8125 37.9844 20.8125 36.4063C20.8125 34.8281 19.5352 33.5508 17.957 33.5508ZM34.1523 35.8945C34.4336 35.8945 34.6641 36.125 34.6641 36.4063C34.6641 36.6875 34.4336 36.918 34.1523 36.918C33.8711 36.918 33.6406 36.6875 33.6406 36.4063C33.6406 36.125 33.8711 35.8945 34.1523 35.8945ZM34.1523 33.5508C32.5742 33.5508 31.2969 34.8281 31.2969 36.4063C31.2969 37.9844 32.5742 39.2617 34.1523 39.2617C35.7305 39.2617 37.0078 37.9844 37.0078 36.4063C37.0078 34.8281 35.7305 33.5508 34.1523 33.5508Z" fill="#212121"/>
</g>
<defs>
<clipPath id="clip0_170_76">
<rect width="217" height="46" fill="white"/>
</clipPath>
</defs>
</svg>
